<svg xmlns="http://www.w3.org/2000/svg" viewBox="0 0 64 64"><path fill="#231f20" d="M39.1 21.3h9.1c3.1 0 5.5-2.5 5.5-5.5V7.5c0-3-2.4-5.4-5.4-5.5H15.5c-3 .1-5.4 2.5-5.4 5.5v8.2c0 3.1 2.5 5.5 5.5 5.5h9.1c.2 2 1.7 3.7 3.7 4.1v28.8c-1.3.7-2.2 2-2.2 3.6v.2c0 2.2 1.8 4.1 4.1 4.1h3.2c2.2 0 4.1-1.8 4.1-4.1v-.2c0-1.6-.9-2.9-2.2-3.6V25.4c2-.5 3.5-2.1 3.7-4.1zM52.6 7.5v8.2c0 2.4-1.9 4.3-4.3 4.3h-9.5L33 15.5 48.6 3.3c2.2.1 4 2 4 4.2zM36.7 20h-9.4l4.7-3.7 4.7 3.7zM32 14.7 17.5 3.3h29.1L32 14.7zm-20.6 1V7.5c0-2.3 1.8-4.1 4-4.3L31 15.5 25.2 20h-9.5c-2.3 0-4.3-1.9-4.3-4.3zm14.7 5.6h11.7c-.2 1.5-1.5 2.8-3.1 2.9h-5.5c-1.5-.2-2.8-1.4-3.1-2.9zM30.5 55h3.4L32 59.6 30.2 55h.3zm3-1.3h-3.7V25.5h4.3v28.3h-.6zm-5.8 4.2v-.2c0-1 .5-1.8 1.3-2.3l2.1 5.3h-.6c-1.6 0-2.8-1.2-2.8-2.8zm8.6-.1v.2c0 1.5-1.2 2.8-2.8 2.8H33l2.1-5.3c.7.4 1.2 1.3 1.2 2.3z"/></svg>